<svg width="184" height="116" viewBox="0 0 184 116" fill="none" xmlns="http://www.w3.org/2000/svg">
<circle cx="58" cy="58" r="58" fill="#FFC7C7"/>
<g filter="url(#filter0_d_31_3114)">
<circle cx="58" cy="58" r="38" fill="#FF3D00"/>
</g>
<path d="M184 58C184 57.5774 183.842 57.2169 183.515 56.8938L174.049 47.4102C173.794 47.1367 173.455 47 173.066 47C172.277 47 171.659 47.6215 171.659 48.4418C171.659 48.8395 171.816 49.2 172.083 49.4734L180.614 58L172.083 66.5266C171.816 66.8124 171.659 67.1729 171.659 67.5706C171.659 68.3785 172.277 69 173.066 69C173.455 69 173.794 68.8633 174.049 68.5898L183.515 59.1062C183.842 58.7831 183.988 58.4226 184 58Z" fill="#FF6D3F" fill-opacity="0.2"/>
<path d="M168.976 58C168.976 57.5774 168.818 57.2169 168.49 56.8938L159.025 47.4102C158.77 47.1367 158.43 47 158.042 47C157.253 47 156.634 47.6215 156.634 48.4418C156.634 48.8395 156.792 49.2 157.059 49.4734L165.59 58L157.059 66.5266C156.792 66.8124 156.634 67.1729 156.634 67.5706C156.634 68.3785 157.253 69 158.042 69C158.43 69 158.77 68.8633 159.025 68.5898L168.49 59.1062C168.818 58.7831 168.963 58.4226 168.976 58Z" fill="#FF6D3F" fill-opacity="0.6"/>
<path d="M152.341 58C152.341 57.5774 152.184 57.2169 151.856 56.8938L142.391 47.4102C142.136 47.1367 141.796 47 141.408 47C140.619 47 140 47.6215 140 48.4418C140 48.8395 140.158 49.2 140.425 49.4734L148.956 58L140.425 66.5266C140.158 66.8124 140 67.1729 140 67.5706C140 68.3785 140.619 69 141.408 69C141.796 69 142.136 68.8633 142.391 68.5898L151.856 59.1062C152.184 58.7831 152.329 58.4226 152.341 58Z" fill="#FF6D3F"/>
<defs>
<filter id="filter0_d_31_3114" x="18" y="18" width="84" height="84" filterUnits="userSpaceOnUse" color-interpolation-filters="sRGB">
<feFlood flood-opacity="0" result="BackgroundImageFix"/>
<feColorMatrix in="SourceAlpha" type="matrix" values="0 0 0 0 0 0 0 0 0 0 0 0 0 0 0 0 0 0 127 0" result="hardAlpha"/>
<feOffset dx="2" dy="2"/>
<feGaussianBlur stdDeviation="2"/>
<feComposite in2="hardAlpha" operator="out"/>
<feColorMatrix type="matrix" values="0 0 0 0 0 0 0 0 0 0 0 0 0 0 0 0 0 0 0.25 0"/>
<feBlend mode="normal" in2="BackgroundImageFix" result="effect1_dropShadow_31_3114"/>
<feBlend mode="normal" in="SourceGraphic" in2="effect1_dropShadow_31_3114" result="shape"/>
</filter>
</defs>
</svg>
