<svg width="240" height="240" viewBox="0 0 240 240" fill="none" xmlns="http://www.w3.org/2000/svg">
<path d="M0 123.967C0 124.386 0.160673 124.744 0.494379 125.064L10.1348 134.469C10.3943 134.74 10.7404 134.876 11.1359 134.876C11.9392 134.876 12.5696 134.26 12.5696 133.446C12.5696 133.052 12.4089 132.694 12.137 132.423L3.44829 123.967L12.137 115.511C12.4089 115.227 12.5696 114.87 12.5696 114.475C12.5696 113.674 11.9392 113.058 11.1359 113.058C10.7404 113.058 10.3943 113.193 10.1348 113.465L0.494379 122.87C0.160673 123.19 0.0123595 123.548 0 123.967Z" fill="#FF6D3F" fill-opacity="0.2"/>
<path d="M15.3021 123.967C15.3021 124.386 15.4628 124.744 15.7965 125.064L25.4369 134.469C25.6964 134.74 26.0425 134.876 26.438 134.876C27.2414 134.876 27.8717 134.26 27.8717 133.446C27.8717 133.052 27.711 132.694 27.4391 132.423L18.7504 123.967L27.4391 115.511C27.711 115.227 27.8717 114.87 27.8717 114.475C27.8717 113.674 27.2414 113.058 26.438 113.058C26.0425 113.058 25.6964 113.193 25.4369 113.465L15.7965 122.87C15.4628 123.19 15.3145 123.548 15.3021 123.967Z" fill="#FF6D3F" fill-opacity="0.6"/>
<path d="M32.2437 123.967C32.2437 124.386 32.4043 124.744 32.738 125.064L42.3784 134.469C42.638 134.74 42.984 134.876 43.3795 134.876C44.1829 134.876 44.8132 134.26 44.8132 133.446C44.8132 133.052 44.6526 132.694 44.3806 132.423L35.6919 123.967L44.3806 115.511C44.6526 115.227 44.8132 114.87 44.8132 114.475C44.8132 113.674 44.1829 113.058 43.3795 113.058C42.984 113.058 42.638 113.193 42.3784 113.465L32.738 122.87C32.4043 123.19 32.256 123.548 32.2437 123.967Z" fill="#FF6D3F"/>
<path d="M118.506 -4.80825e-07C118.085 -4.99298e-07 117.726 0.160009 117.405 0.492335L107.96 10.0929C107.688 10.3514 107.552 10.696 107.552 11.0899C107.552 11.8899 108.171 12.5176 108.988 12.5176C109.384 12.5176 109.743 12.3576 110.015 12.0868L118.506 3.43404L126.997 12.0868C127.282 12.3576 127.641 12.5176 128.037 12.5176C128.842 12.5176 129.461 11.8899 129.461 11.0899C129.461 10.696 129.324 10.3514 129.052 10.0929L119.608 0.492335C119.286 0.160009 118.927 0.0123079 118.506 -4.80825e-07Z" fill="#FF6D3F" fill-opacity="0.2"/>
<path d="M118.506 15.2388C118.085 15.2388 117.726 15.3988 117.405 15.7311L107.96 25.3317C107.688 25.5901 107.552 25.9348 107.552 26.3286C107.552 27.1287 108.171 27.7564 108.988 27.7564C109.384 27.7564 109.743 27.5964 110.015 27.3256L118.506 18.6728L126.997 27.3256C127.282 27.5964 127.641 27.7564 128.037 27.7564C128.842 27.7564 129.461 27.1287 129.461 26.3286C129.461 25.9348 129.324 25.5901 129.052 25.3317L119.608 15.7311C119.286 15.3988 118.927 15.2511 118.506 15.2388Z" fill="#FF6D3F" fill-opacity="0.6"/>
<path d="M118.506 32.1104C118.085 32.1104 117.726 32.2704 117.405 32.6027L107.96 42.2032C107.688 42.4617 107.552 42.8063 107.552 43.2002C107.552 44.0003 108.171 44.628 108.988 44.628C109.384 44.628 109.743 44.468 110.015 44.1972L118.506 35.5444L126.997 44.1972C127.282 44.468 127.641 44.628 128.037 44.628C128.842 44.628 129.461 44.0003 129.461 43.2002C129.461 42.8063 129.324 42.4617 129.052 42.2032L119.608 32.6027C119.286 32.2704 118.927 32.1227 118.506 32.1104Z" fill="#FF6D3F"/>
<path d="M119.502 240C119.923 240 120.282 239.84 120.604 239.508L130.048 229.907C130.32 229.649 130.456 229.304 130.456 228.91C130.456 228.11 129.838 227.482 129.021 227.482C128.625 227.482 128.266 227.642 127.993 227.913L119.502 236.566L111.011 227.913C110.726 227.642 110.367 227.482 109.971 227.482C109.167 227.482 108.548 228.11 108.548 228.91C108.548 229.304 108.684 229.649 108.956 229.907L118.4 239.508C118.722 239.84 119.081 239.988 119.502 240Z" fill="#FF6D3F" fill-opacity="0.2"/>
<path d="M119.502 224.761C119.923 224.761 120.282 224.601 120.604 224.269L130.048 214.668C130.32 214.41 130.456 214.065 130.456 213.671C130.456 212.871 129.838 212.243 129.021 212.243C128.625 212.243 128.266 212.403 127.993 212.674L119.502 221.327L111.011 212.674C110.726 212.403 110.367 212.243 109.971 212.243C109.167 212.243 108.548 212.871 108.548 213.671C108.548 214.065 108.684 214.41 108.956 214.668L118.4 224.269C118.722 224.601 119.081 224.749 119.502 224.761Z" fill="#FF6D3F" fill-opacity="0.6"/>
<path d="M119.502 207.89C119.923 207.89 120.282 207.73 120.604 207.397L130.048 197.797C130.32 197.538 130.456 197.194 130.456 196.8C130.456 196 129.838 195.372 129.021 195.372C128.625 195.372 128.266 195.532 127.993 195.803L119.502 204.455L111.011 195.803C110.726 195.532 110.367 195.372 109.971 195.372C109.167 195.372 108.548 196 108.548 196.8C108.548 197.194 108.684 197.538 108.956 197.797L118.4 207.397C118.722 207.73 119.081 207.877 119.502 207.89Z" fill="#FF6D3F"/>
<path d="M240 123.967C240 123.548 239.839 123.19 239.506 122.87L229.865 113.465C229.606 113.194 229.26 113.058 228.864 113.058C228.061 113.058 227.43 113.674 227.43 114.488C227.43 114.882 227.591 115.24 227.863 115.511L236.552 123.967L227.863 132.423C227.591 132.707 227.43 133.064 227.43 133.459C227.43 134.26 228.061 134.876 228.864 134.876C229.26 134.876 229.606 134.741 229.865 134.469L239.506 125.064C239.839 124.744 239.988 124.386 240 123.967Z" fill="#FF6D3F" fill-opacity="0.2"/>
<path d="M224.698 123.967C224.698 123.548 224.537 123.19 224.203 122.87L214.563 113.465C214.304 113.194 213.957 113.058 213.562 113.058C212.759 113.058 212.128 113.674 212.128 114.488C212.128 114.882 212.289 115.24 212.561 115.511L221.25 123.967L212.561 132.423C212.289 132.707 212.128 133.064 212.128 133.459C212.128 134.26 212.759 134.876 213.562 134.876C213.957 134.876 214.304 134.741 214.563 134.469L224.203 125.064C224.537 124.744 224.686 124.386 224.698 123.967Z" fill="#FF6D3F" fill-opacity="0.6"/>
<path d="M207.756 123.967C207.756 123.548 207.596 123.19 207.262 122.87L197.622 113.465C197.362 113.194 197.016 113.058 196.62 113.058C195.817 113.058 195.187 113.674 195.187 114.488C195.187 114.882 195.347 115.24 195.619 115.511L204.308 123.967L195.619 132.423C195.347 132.707 195.187 133.064 195.187 133.459C195.187 134.26 195.817 134.876 196.62 134.876C197.016 134.876 197.362 134.741 197.622 134.469L207.262 125.064C207.596 124.744 207.744 124.386 207.756 123.967Z" fill="#FF6D3F"/>
</svg>
